<svg width="200" height="200" viewBox="0 0 200 200" fill="none" xmlns="http://www.w3.org/2000/svg">
<circle cx="100" cy="100" r="100" fill="#A1E5FA"/>
<path d="M134 63.853C128.848 57.0613 121.929 51.7706 113.976 48.5413C106.024 45.312 97.3336 44.2643 88.8264 45.5093C80.3193 46.7543 72.312 50.2456 65.6529 55.6134C58.9937 60.9811 53.9306 68.0254 51 76" stroke="black" stroke-width="8.2" stroke-linecap="round" stroke-linejoin="round"/>
<path d="M103 101.999C103 94.4835 105.199 87.1368 109.32 80.8879C113.44 74.639 119.297 69.7686 126.149 66.8925C133.002 64.0165 140.542 63.264 147.816 64.7302C155.09 66.1964 161.772 69.8154 167.017 75.1297C172.261 80.4439 175.832 87.2147 177.279 94.5858C178.726 101.957 177.984 109.597 175.145 116.541C172.307 123.484 167.501 129.419 161.334 133.594C155.167 137.769 147.917 139.998 140.5 139.998H51.3449C44.2824 140.083 37.4481 137.465 32.2068 132.668C26.9654 127.871 23.7026 121.246 23.0699 114.118C22.789 110.134 23.3566 106.135 24.7342 102.393C26.1118 98.6508 28.2673 95.2523 31.0546 92.428C33.8418 89.6036 37.1957 87.4195 40.8889 86.0235C44.582 84.6275 48.5282 84.0524 52.4599 84.3371C55.9894 84.5826 59.4342 85.544 62.59 87.1642" stroke="black" stroke-width="8.2" stroke-linecap="round" stroke-linejoin="round"/>
</svg>
